<svg xmlns="http://www.w3.org/2000/svg" width="15.166" height="14.793" viewBox="0 0 15.166 14.793"><defs><style>.a{fill:#8f8f8f;stroke:#707070;stroke-width:0.1px;}</style></defs><path class="a" d="M8.733,0c.218.05.438.09.653.152a5.9,5.9,0,0,1,1.788.9,2.687,2.687,0,0,1,.506.439,1.309,1.309,0,0,1-.169,1.56c-.537.448-1.039.938-1.554,1.413a1.135,1.135,0,0,1-1.288.26,1.393,1.393,0,0,1-.36-.237c-.241-.207-.471-.427-.707-.64-.038-.034-.083-.061-.149-.109a.675.675,0,0,1-.062.095q-1.8,1.937-3.6,3.872a.144.144,0,0,0-.023.2,1.283,1.283,0,0,0,.152.186c.177.171.358.336.536.5a1.149,1.149,0,0,1,.136,1.624c-.456.593-.922,1.179-1.39,1.763a1.163,1.163,0,0,1-1.314.284,1.147,1.147,0,0,1-.4-.275A6.621,6.621,0,0,1,.239,10.077,3.123,3.123,0,0,1,.22,7.727,10.817,10.817,0,0,1,1.842,4.96,19.7,19.7,0,0,1,4.953,1.719,9.439,9.439,0,0,1,7.089.328,3.743,3.743,0,0,1,8.1.022.241.241,0,0,0,8.154,0ZM8.544.723A2.681,2.681,0,0,0,7.469.949a8.715,8.715,0,0,0-2.1,1.372A18.436,18.436,0,0,0,1.657,6.489,7.381,7.381,0,0,0,.871,8.058,2.385,2.385,0,0,0,.9,9.787a6.206,6.206,0,0,0,1.078,1.689.462.462,0,0,0,.533.128.657.657,0,0,0,.276-.259c.416-.528.833-1.054,1.244-1.586a.424.424,0,0,0-.058-.615c-.093-.089-.192-.173-.282-.264A5.652,5.652,0,0,1,3.19,8.35.856.856,0,0,1,3.2,7.281q1.847-1.975,3.683-3.96a1.011,1.011,0,0,1,.192-.164.747.747,0,0,1,.943.1c.259.216.5.453.755.677a.75.75,0,0,0,.22.142c.209.079.361-.039.5-.17.489-.448.973-.9,1.471-1.342a.54.54,0,0,0,.165-.521A.35.35,0,0,0,11,1.821c-.393-.256-.785-.519-1.2-.74A2.9,2.9,0,0,0,8.544.723Z" transform="matrix(0.259, -0.966, 0.966, 0.259, 0.061, 11.525)"/></svg>