<svg xmlns="http://www.w3.org/2000/svg" width="9.958" height="14.847" viewBox="0 0 9.958 14.847"><defs><style>.a{fill:#8f8f8f;}</style></defs><g transform="translate(-56.712 -419.308)"><g transform="translate(56.712 419.308)"><path class="a" d="M1093.719,767.023l-4.365-7.6-.1-.184a4.78,4.78,0,0,1-.516-2.17,4.98,4.98,0,0,1,9.958,0,4.771,4.771,0,0,1-.516,2.171l-.005.01-.1.187Zm-3.487-8.077,3.487,6.071,3.487-6.071.086-.161a3.786,3.786,0,0,0,.406-1.716,3.981,3.981,0,0,0-7.959,0,3.786,3.786,0,0,0,.406,1.715Z" transform="translate(-1088.74 -752.176)"/></g><g transform="translate(59.021 421.571)"><path class="a" d="M1114.516,780.167a2.669,2.669,0,1,1,2.67-2.669A2.673,2.673,0,0,1,1114.516,780.167Zm0-4.339a1.67,1.67,0,1,0,1.67,1.67A1.672,1.672,0,0,0,1114.516,775.828Z" transform="translate(-1111.846 -774.829)"/></g></g></svg>