<svg xmlns="http://www.w3.org/2000/svg"
    width="64.873"
    height="11.919"
    viewBox="0 0 64.873 11.919">
    <path
        class="a"
        d="M-38.736-10.277h-4.676l-.04.134,3.816,2.7-1.518,4.5.094.081,3.843-2.822,3.843,2.822.094-.081-1.518-4.5,3.816-2.7-.04-.134H-35.7l-1.451-4.5h-.134Zm.43.591.672-2.069.4-1.5h.027l.39,1.5.685,2.069h2.11l1.572-.094v.027l-1.33.86L-35.5-7.67l.672,1.962.618,1.559-.027.027-1.33-1.088L-37.217-6.42-38.87-5.211-40.2-4.123l-.027-.027.618-1.559.672-1.962-1.72-1.223-1.33-.86v-.027l1.572.094Zm12.671-.591h-4.676l-.04.134,3.816,2.7-1.518,4.5.094.081,3.843-2.822,3.843,2.822.094-.081-1.518-4.5,3.816-2.7-.04-.134H-22.6l-1.451-4.5h-.134Zm.43.591.672-2.069.4-1.5h.027l.39,1.5.685,2.069h2.11l1.572-.094v.027l-1.33.86L-22.4-7.67l.672,1.962.618,1.559-.027.027-1.33-1.088L-24.116-6.42l-1.653,1.209L-27.1-4.123l-.027-.027.618-1.559.672-1.962-1.72-1.223-1.33-.86v-.027l1.572.094Zm12.671-.591H-17.21l-.04.134,3.816,2.7-1.518,4.5.094.081,3.843-2.822,3.843,2.822.094-.081L-8.6-7.441l3.816-2.7-.04-.134H-9.5l-1.451-4.5h-.134Zm.43.591.672-2.069.4-1.5H-11l.39,1.5.685,2.069h2.11l1.572-.094v.027l-1.33.86L-9.3-7.67l.672,1.962.618,1.559-.027.027-1.33-1.088L-11.015-6.42l-1.653,1.209L-14-4.123l-.027-.027.618-1.559.672-1.962-1.72-1.223-1.33-.86v-.027l1.572.094ZM.567-10.277H-4.109l-.04.134,3.816,2.7-1.518,4.5.094.081L2.086-5.681,5.929-2.859l.094-.081L4.5-7.441l3.816-2.7-.04-.134H3.6l-1.451-4.5H2.019ZM1-9.685l.672-2.069.4-1.5H2.1l.39,1.5.685,2.069h2.11l1.572-.094v.027l-1.33.86L3.806-7.67l.672,1.962L5.1-4.149l-.027.027L3.738-5.211,2.086-6.42.433-5.211-.9-4.123l-.027-.027.618-1.559L.366-7.67l-1.72-1.223-1.33-.86v-.027l1.572.094Zm12.671-.591H8.992l-.04.134,3.816,2.7L11.25-2.94l.094.081,3.843-2.822L19.03-2.859l.094-.081-1.518-4.5,3.816-2.7-.04-.134H16.705l-1.451-4.5H15.12Zm.43.591.672-2.069.4-1.5H15.2l.39,1.5.685,2.069h2.11l1.572-.094v.027l-1.33.86L16.907-7.67l.672,1.962L18.2-4.149l-.027.027-1.33-1.088L15.187-6.42,13.534-5.211,12.2-4.123l-.027-.027.618-1.559.672-1.962-1.72-1.223-1.33-.86v-.027l1.572.094Z"
        transform="translate(43.452 14.778)" />
</svg>